SplineFontDB: 3.0
FontName: Techna-Regular
FullName: Techna Regular
FamilyName: Techna
Weight: Regular
Copyright: Copyright (c) 2019, Carl Enlund
UComments: "2019-5-11: Created with FontForge (http://fontforge.org)"
Version: 001.000
ItalicAngle: 0
UnderlinePosition: -100
UnderlineWidth: 50
Ascent: 800
Descent: 200
InvalidEm: 0
LayerCount: 2
Layer: 0 0 "Back" 1
Layer: 1 0 "Fore" 0
XUID: [1021 637 837473831 1446149]
FSType: 0
OS2Version: 0
OS2_WeightWidthSlopeOnly: 0
OS2_UseTypoMetrics: 1
CreationTime: 1557605594
ModificationTime: 1558029069
PfmFamily: 17
TTFWeight: 400
TTFWidth: 5
LineGap: 90
VLineGap: 0
OS2TypoAscent: 0
OS2TypoAOffset: 1
OS2TypoDescent: 0
OS2TypoDOffset: 1
OS2TypoLinegap: 0
OS2WinAscent: 0
OS2WinAOffset: 1
OS2WinDescent: 0
OS2WinDOffset: 1
HheadAscent: 0
HheadAOffset: 1
HheadDescent: 0
HheadDOffset: 1
OS2Vendor: 'PfEd'
MarkAttachClasses: 1
DEI: 91125
LangName: 1033
Encoding: ISO8859-1
UnicodeInterp: none
NameList: AGL For New Fonts
DisplaySize: -72
AntiAlias: 1
FitToEm: 0
WinInfo: 0 25 9
BeginPrivate: 0
EndPrivate
Grid
-976 -155 m 0
 2024 -155 l 1024
-1021.83337402 1300 m 0
 -1021.83337402 -700 l 1024
-1000 503 m 0
 2000 503 l 1024
-1000 413.916992188 m 0
 2000 413.916992188 l 1024
-1000 688 m 0
 2000 688 l 1024
EndSplineSet
BeginChars: 256 49

StartChar: D
Encoding: 68 68 0
Width: 706
VWidth: 0
Flags: HW
LayerCount: 2
Fore
SplineSet
332 121 m 1
 332 0 l 1
 147 0 l 1
 147 121 l 1
 332 121 l 1
342 688 m 1
 336 567 l 1
 147 567 l 1
 147 688 l 1
 342 688 l 1
65 0 m 1
 65 688 l 1
 199 688 l 1
 199 0 l 1
 65 0 l 1
342 688 m 1
 564.498591549 688 681 540.865497076 681 348 c 3
 681 150.017595308 561.06197183 0 332 0 c 1
 332 121 l 1
 477.946902655 121 549 221.337837838 549 346 c 3
 549 468.445945946 479.256637169 567 336 567 c 1
 342 688 l 1
EndSplineSet
EndChar

StartChar: E
Encoding: 69 69 1
Width: 566
VWidth: 0
Flags: HW
LayerCount: 2
Fore
SplineSet
130 412.916992188 m 1
 458 412.916992188 l 1
 427 293 l 1
 129 292.916992188 l 1
 130 412.916992188 l 1
130 124 m 1
 531 124 l 1
 564 0 l 1
 130 0 l 1
 130 124 l 1
130 688 m 1
 528 688 l 1
 496 564 l 1
 130 564 l 1
 130 688 l 1
65 0 m 1
 65 688 l 1
 199 688 l 1
 199 0 l 1
 65 0 l 1
EndSplineSet
EndChar

StartChar: C
Encoding: 67 67 2
Width: 630
VWidth: 0
Flags: HW
LayerCount: 2
Fore
SplineSet
572 547 m 5
 549.413333334 552.5 495 569 418 569 c 7
 308.343161753 569 158 520.896720852 158 345 c 3
 158 179.712446352 295.00731445 113 426 113 c 3
 487.186813187 113 560.802197802 128.141151951 600 146 c 1
 600 18 l 1
 566.663366337 4.03703703704 500.549661282 -11 418 -11 c 3
 242.425974026 -11 25 72.3073515917 25 339 c 3
 25 629.174890775 268.901000976 697 437 697 c 7
 514.827935512 697 577.318181818 683.105263158 605 675 c 5
 572 547 l 5
EndSplineSet
EndChar

StartChar: G
Encoding: 71 71 3
Width: 714
VWidth: 0
Flags: HW
LayerCount: 2
Fore
SplineSet
603 541 m 1
 576.880434783 548 514 568 425 568 c 3
 307.322222222 568 158 523 158 345 c 3
 158 179.712446352 287.128571429 113 434 113 c 7
 499.063583815 113 560.242774566 132.023809524 602 160 c 5
 651 33 l 5
 609.47639485 11.4680851064 523 -11 426 -11 c 7
 235.880597015 -11 25 72.7606837607 25 339 c 3
 25 630 268.224637681 697 436 697 c 3
 534.058252427 697 602.990291262 680 636 670 c 1
 603 541 l 1
523 33 m 5
 523 354 l 1
 651 354 l 1
 651 33 l 5
 523 33 l 5
363 404 m 1
 651 404 l 1
 651 285 l 1
 332 285 l 1
 363 404 l 1
EndSplineSet
EndChar

StartChar: T
Encoding: 84 84 4
Width: 584
VWidth: 0
Flags: HW
LayerCount: 2
Fore
SplineSet
576 688 m 1
 576 564 l 1
 1 564 l 1
 33 688 l 1
 576 688 l 1
232 0 m 1
 232 639 l 1
 366 639 l 1
 366 0 l 1
 232 0 l 1
EndSplineSet
EndChar

StartChar: H
Encoding: 72 72 5
Width: 671
VWidth: 0
Flags: HW
LayerCount: 2
Fore
SplineSet
126 413.916992188 m 1
 654 413.916992188 l 1
 631 291 l 5
 126 290.916992188 l 1
 126 413.916992188 l 1
441 0 m 1
 441 688 l 1
 575 688 l 1
 575 0 l 1
 441 0 l 1
65 0 m 1
 65 688 l 1
 199 688 l 1
 199 0 l 1
 65 0 l 1
EndSplineSet
EndChar

StartChar: N
Encoding: 78 78 6
Width: 651
VWidth: 0
Flags: HW
LayerCount: 2
Fore
SplineSet
105 652 m 1
 191 688 l 1
 219 688 l 5
 557 36 l 1
 472 0 l 1
 444 0 l 1
 105 652 l 1
452 0 m 1
 452 688 l 1
 586 688 l 1
 586 0 l 1
 452 0 l 1
65 0 m 1
 65 688 l 1
 199 688 l 1
 199 0 l 1
 65 0 l 1
EndSplineSet
EndChar

StartChar: A
Encoding: 65 65 7
Width: 642
VWidth: 0
Flags: HW
LayerCount: 2
Back
SplineSet
847 403.916992188 m 5
 1338 403.916992188 l 5
 1308 285.916992188 l 5
 847 285.916992188 l 5
 847 403.916992188 l 5
1111 0 m 5
 1111 688 l 5
 1245 688 l 5
 1245 0 l 5
 1111 0 l 5
847 688 m 5
 1166 688 l 5
 1166 566 l 5
 847 566 l 5
 847 688 l 5
766 0 m 5
 766 688 l 5
 900 688 l 5
 900 0 l 5
 766 0 l 5
EndSplineSet
Fore
SplineSet
464 0 m 5
 302 688 l 5
 437 688 l 5
 600 0 l 5
 464 0 l 5
191 688 m 5
 428 688 l 5
 428 566 l 5
 189 566 l 5
 191 688 l 5
15 0 m 5
 178 688 l 5
 311 688 l 5
 149 0 l 5
 15 0 l 5
129 298.916992188 m 5
 627 298.916992188 l 5
 605 180.916992188 l 5
 129 180.916992188 l 5
 129 298.916992188 l 5
EndSplineSet
EndChar

StartChar: B
Encoding: 66 66 8
Width: 600
VWidth: 0
Flags: HW
LayerCount: 2
Fore
SplineSet
337 118 m 1
 349 0 l 1
 147 0 l 1
 147 118 l 1
 337 118 l 1
386 406 m 1
 386 292 l 1
 147 292 l 1
 147 406 l 1
 386 406 l 1
337 384 m 1
 478.238938053 384 565 304.771556528 565 192 c 3
 565 85 487.79653702 0 349 0 c 1
 337 118 l 1
 398.876106195 118 429 157.243243243 429 206 c 3
 429 253.648648649 398.876106195 292 337 292 c 1
 337 384 l 1
342 688 m 1
 328 568 l 1
 147 568 l 1
 147 688 l 1
 342 688 l 1
65 0 m 1
 65 688 l 1
 199 688 l 1
 199 0 l 1
 65 0 l 1
342 688 m 1
 476.019417476 688 545 605.661050157 545 511 c 3
 545 404.27887753 465.634259259 331 328 331 c 1
 328 406 l 1
 381.823008849 406 411 442.567567568 411 488 c 3
 411 532.324324324 381.823008849 568 328 568 c 1
 342 688 l 1
EndSplineSet
EndChar

StartChar: F
Encoding: 70 70 9
Width: 535
VWidth: 0
Flags: HW
LayerCount: 2
Fore
SplineSet
130 406.917 m 1
 456 406.917 l 1
 424 286 l 1
 130 286 l 1
 130 406.917 l 1
  Spiro
    130 406.917 v
    456 406.917 v
    424 286 v
    130 286 v
    0 0 z
  EndSpiro
130 688 m 1
 530 688 l 1
 497 564 l 1
 130 564 l 1
 130 688 l 1
  Spiro
    130 688 v
    530 688 v
    497 564 v
    130 564 v
    0 0 z
  EndSpiro
65 0 m 1
 65 688 l 1
 199 688 l 1
 199 0 l 1
 65 0 l 1
  Spiro
    65 0 v
    65 688 v
    199 688 v
    199 0 v
    0 0 z
  EndSpiro
EndSplineSet
EndChar

StartChar: I
Encoding: 73 73 10
Width: 274
VWidth: 0
Flags: HW
LayerCount: 2
Fore
SplineSet
70 0 m 1
 70 688 l 1
 204 688 l 1
 204 0 l 1
 70 0 l 1
EndSplineSet
EndChar

StartChar: L
Encoding: 76 76 11
Width: 536
VWidth: 0
Flags: HW
LayerCount: 2
Fore
SplineSet
65 0 m 1
 65 688 l 1
 199 688 l 1
 199 0 l 1
 65 0 l 1
130 0 m 1
 130 124 l 1
 531 124 l 5
 500 0 l 5
 130 0 l 1
EndSplineSet
EndChar

StartChar: M
Encoding: 77 77 12
Width: 761
VWidth: 0
Flags: HW
LayerCount: 2
Fore
SplineSet
562 0 m 1
 562 688 l 1
 696 688 l 1
 696 0 l 1
 562 0 l 1
332 270 m 1
 332 332 l 1
 538 688 l 1
 655 688 l 1
 435 270 l 1
 332 270 l 1
328 270 m 1
 104 688 l 5
 225 688 l 1
 433 334 l 1
 433 270 l 1
 328 270 l 1
65 0 m 1
 65 688 l 1
 199 688 l 1
 199 0 l 1
 65 0 l 1
EndSplineSet
EndChar

StartChar: O
Encoding: 79 79 13
Width: 798
VWidth: 0
Flags: HW
LayerCount: 2
Fore
SplineSet
399 706 m 7
 643.691489362 706 773 538.621687238 773 346 c 3
 773 151.155638656 643.691489362 -18 399 -18 c 3
 154.308510638 -18 25 151.155638656 25 346 c 3
 25 538.621687238 154.308510638 706 399 706 c 7
399 586 m 7
 240.303346278 586 157 470.033163265 157 346 c 3
 157 219.899617347 240.303346278 102 399 102 c 3
 557.696653722 102 641 219.899617347 641 346 c 3
 641 470.033163265 557.696653722 586 399 586 c 7
EndSplineSet
EndChar

StartChar: P
Encoding: 80 80 14
Width: 571
VWidth: 0
Flags: HW
LayerCount: 2
Fore
SplineSet
327 395 m 1
 330 275 l 1
 147 275 l 1
 147 395 l 1
 327 395 l 1
336 688 m 1
 327 566 l 1
 147 566 l 1
 147 688 l 1
 336 688 l 1
65 0 m 1
 65 688 l 1
 199 688 l 1
 199 0 l 1
 65 0 l 1
336 688 m 1
 478.136485579 688 551 599.719298246 551 484 c 3
 551 365.096774194 476.073852373 275 330 275 c 1
 327 395 l 1
 387.957172511 395 416 432.908249165 416 482 c 3
 416 528.54054054 387.957172511 566 327 566 c 1
 336 688 l 1
EndSplineSet
EndChar

StartChar: Q
Encoding: 81 81 15
Width: 788
VWidth: 0
Flags: HW
LayerCount: 2
Fore
SplineSet
662 -61 m 1
 355 227 l 1
 438 313 l 1
 745 25 l 1
 662 -61 l 1
EndSplineSet
Refer: 13 79 N 1 0 0 1 0 0 2
EndChar

StartChar: R
Encoding: 82 82 16
Width: 586
VWidth: 0
Flags: HW
LayerCount: 2
Fore
SplineSet
327 395 m 1
 330 280 l 1
 147 280 l 1
 147 395 l 1
 327 395 l 1
338 688 m 1
 327 566 l 1
 147 566 l 1
 147 688 l 1
 338 688 l 1
65 0 m 1
 65 688 l 1
 199 688 l 1
 199 0 l 1
 65 0 l 1
338 688 m 1
 476.785849694 688 551 599.883040936 551 491 c 3
 551 370.096774194 479.073852373 280 330 280 c 1
 327 395 l 1
 387.957172511 395 416 432.908249165 416 482 c 3
 416 528.54054054 387.957172511 566 327 566 c 1
 338 688 l 1
408 0 m 5
 256 328 l 5
 404 328 l 1
 556 0 l 1
 408 0 l 5
EndSplineSet
EndChar

StartChar: U
Encoding: 85 85 17
Width: 630
VWidth: 0
Flags: HW
LayerCount: 2
Fore
SplineSet
197 236 m 2
 197 153.77122237 236.173727101 107 315 107 c 3
 393.826272899 107 433 153.77122237 433 236 c 2
 433 688 l 1
 567 688 l 1
 567 223 l 2
 567 73.6992349585 479.871984374 -17 315 -17 c 3
 150.128015626 -17 63 73.6992349585 63 223 c 2
 63 688 l 1
 197 688 l 1
 197 236 l 2
EndSplineSet
EndChar

StartChar: V
Encoding: 86 86 18
Width: 591
VWidth: 0
Flags: HW
LayerCount: 2
Fore
SplineSet
259 0 m 5
 438 688 l 5
 576 688 l 5
 388 0 l 5
 259 0 l 5
203 0 m 5
 15 688 l 5
 157 688 l 5
 336 0 l 5
 203 0 l 5
EndSplineSet
EndChar

StartChar: Z
Encoding: 90 90 19
Width: 560
VWidth: 0
Flags: HW
LayerCount: 2
Fore
SplineSet
26 20 m 1
 108 121 l 1
 555 121 l 1
 522 0 l 1
 26 0 l 1
 26 20 l 1
530 668 m 1
 447 567 l 1
 22 567 l 1
 55 688 l 1
 530 688 l 1
 530 668 l 1
26 20 m 1
 376 654 l 1
 530 668 l 1
 180 36 l 1
 26 20 l 1
EndSplineSet
EndChar

StartChar: W
Encoding: 87 87 21
Width: 865
VWidth: 0
Flags: HW
LayerCount: 2
Fore
SplineSet
581 0 m 1
 700 688 l 1
 835 688 l 1
 707 0 l 1
 581 0 l 1
547 0 m 1
 383 688 l 1
 501 688 l 1
 661 0 l 1
 547 0 l 1
208 0 m 1
 368 688 l 1
 480 688 l 1
 316 0 l 1
 208 0 l 1
158 0 m 1
 30 688 l 1
 169 688 l 1
 288 0 l 1
 158 0 l 1
EndSplineSet
EndChar

StartChar: Y
Encoding: 89 89 22
Width: 575
VWidth: 0
Flags: HW
LayerCount: 2
Fore
SplineSet
221 0 m 1
 221 329 l 1
 355 329 l 1
 355 0 l 1
 221 0 l 1
224 255 m 1
 431 688 l 1
 575 688 l 1
 351 245 l 1
 224 255 l 1
223 244 m 1
 0 688 l 1
 148 688 l 1
 355 258 l 1
 223 244 l 1
EndSplineSet
EndChar

StartChar: X
Encoding: 88 88 23
Width: 598
VWidth: 0
Flags: HW
LayerCount: 2
Back
SplineSet
150 0 m 5
 1 0 l 5
 432 688 l 5
 580 688 l 5
 150 0 l 5
440 0 m 5
 18 688 l 5
 172 688 l 5
 593 0 l 5
 440 0 l 5
EndSplineSet
Fore
SplineSet
155 0 m 1
 6 0 l 1
 210.015625 355.854492188 l 1
 23 688 l 1
 177 688 l 1
 306.1953125 449.426757812 l 1
 437 688 l 1
 585 688 l 1
 394.020507812 357.194335938 l 1
 598 0 l 1
 445 0 l 1
 297.840820312 263.62109375 l 1
 155 0 l 1
EndSplineSet
EndChar

StartChar: S
Encoding: 83 83 24
Width: 515
VWidth: 0
Flags: HW
LayerCount: 2
Fore
SplineSet
468 667 m 1
 437 542 l 1
 384.265625 568.270507812 330.497070312 578 285 578 c 3
 216 578 173 555 173 502 c 3
 173 461.482421875 194.313476562 446.421875 263 418 c 2
 321 394 l 2
 431.170898438 348.412109375 490 305 490 195 c 3
 490 61 397 -11 246 -11 c 3
 167.838867188 -11 96.0146484375 8.4990234375 47 39 c 1
 47 174 l 1
 105 132.286132812 185.6953125 107 255 107 c 3
 320 107 357 131.29296875 357 190 c 7
 357 231.033203125 326.325195312 246.48828125 254 277 c 2
 190 304 l 2
 108.627929688 338.329101562 40 375.6328125 40 499 c 3
 40 622.00390625 135 699 294 699 c 3
 361.953125 699 429.905273438 685.423828125 468 667 c 1
EndSplineSet
EndChar

StartChar: K
Encoding: 75 75 25
Width: 603
VWidth: 0
Flags: HW
LayerCount: 2
Fore
SplineSet
191 413.916992188 m 1
 347 413.916992188 l 1
 606 0 l 1
 451 0 l 1
 191 413.916992188 l 1
126 413.916992188 m 1
 281 413.916992188 l 1
 281 291 l 1
 126 290.916992188 l 1
 126 413.916992188 l 1
197 291 m 1
 441 688 l 1
 590 688 l 1
 345 291 l 1
 197 291 l 1
65 0 m 1
 65 688 l 1
 199 688 l 1
 199 0 l 1
 65 0 l 1
EndSplineSet
EndChar

StartChar: J
Encoding: 74 74 26
Width: 486
VWidth: 0
Flags: HW
LayerCount: 2
Fore
SplineSet
359 688 m 1
 359 564 l 1
 44 564 l 1
 76 688 l 1
 170.333007812 688 264.666992188 688 359 688 c 1
40 147 m 5
 81.4951171875 126.076612903 118.338867188 115 167 115 c 3
 245.080078125 115 289 149 289 228 c 2
 289 688 l 1
 423 688 l 1
 423 217 l 2
 423 65 339.424804688 -9 181 -9 c 3
 130.143554688 -9 69.1728515625 1.73046875 40 22 c 1
 40 147 l 5
EndSplineSet
EndChar

StartChar: Odieresis
Encoding: 214 214 27
Width: 788
VWidth: 0
Flags: HW
LayerCount: 2
Fore
SplineSet
449 652 m 1
 449 820 l 1
 593 820 l 1
 593 652 l 1
 449 652 l 1
205 652 m 1
 205 820 l 1
 349 820 l 1
 349 652 l 1
 205 652 l 1
EndSplineSet
Refer: 13 79 N 1 0 0 1 0 0 2
EndChar

StartChar: o
Encoding: 111 111 28
Width: 582
VWidth: 0
Flags: HW
LayerCount: 2
Fore
SplineSet
291 518 m 7
 461.931640625 518 560 402 560 252 c 7
 560 101 461.931640625 -15 291 -15 c 7
 120.068359375 -15 22 101 22 252 c 7
 22 402 120.068359375 518 291 518 c 7
291 404 m 7
 199.461914062 404 151 336.106445312 151 252 c 7
 151 167.900390625 199.461914062 99 291 99 c 7
 382.538085938 99 431 167.900390625 431 252 c 7
 431 336.106445312 382.538085938 404 291 404 c 7
EndSplineSet
EndChar

StartChar: i
Encoding: 105 105 29
Width: 239
VWidth: 0
Flags: HW
LayerCount: 2
Fore
SplineSet
55 567 m 5
 55 688 l 5
 184 688 l 5
 184 567 l 5
 55 567 l 5
55 0 m 1
 55 503 l 1
 184 503 l 1
 184 0 l 1
 55 0 l 1
EndSplineSet
EndChar

StartChar: hyphen
Encoding: 45 45 30
Width: 399
VWidth: 0
Flags: HW
LayerCount: 2
Fore
SplineSet
364 363 m 5
 364 239 l 5
 23 239 l 5
 55 363 l 5
 364 363 l 5
EndSplineSet
EndChar

StartChar: l
Encoding: 108 108 31
Width: 239
VWidth: 0
Flags: HW
LayerCount: 2
Fore
SplineSet
55 0 m 1
 55 688 l 5
 184 688 l 5
 184 0 l 1
 55 0 l 1
EndSplineSet
EndChar

StartChar: n
Encoding: 110 110 32
Width: 546
VWidth: 0
Flags: HW
LayerCount: 2
Fore
SplineSet
55 0 m 1
 55 503 l 1
 180 503 l 1
 181 360 l 1
 184 360 l 1
 184 0 l 1
 55 0 l 1
167 358 m 1
 167 450.981445312 224.5859375 512 330 512 c 3
 435.52734375 512 497 442.806640625 497 338 c 2
 497 0 l 1
 368 0 l 1
 368 298 l 6
 368 355.796381579 339.674804688 394 281 394 c 3
 219.6328125 394 184 356.756835938 184 288 c 1
 167 358 l 1
EndSplineSet
EndChar

StartChar: h
Encoding: 104 104 33
Width: 546
VWidth: 0
Flags: HW
LayerCount: 2
Fore
SplineSet
55 0 m 1
 55 688 l 1
 184 688 l 1
 184 0 l 1
 55 0 l 1
167 358 m 1
 167 450.981445312 224.5859375 512 330 512 c 3
 435.52734375 512 497 442.806640625 497 338 c 2
 497 0 l 1
 368 0 l 1
 368 298 l 6
 368 355.796381579 339.674804688 394 281 394 c 3
 219.6328125 394 184 356.756835938 184 288 c 1
 167 358 l 1
EndSplineSet
EndChar

StartChar: a
Encoding: 97 97 34
Width: 498
VWidth: 0
Flags: HW
LayerCount: 2
Fore
SplineSet
320 313 m 1
 320 361.956054688 287.611285266 394 208 394 c 7
 147 394 91.7647058824 376.105263158 56 360 c 1
 87 481 l 1
 126 501 171.5 512 243 512 c 3
 377.76635514 512 449 442 449 337 c 1
 320 313 l 1
449 337 m 1
 449 0 l 1
 324 0 l 1
 323 143 l 1
 320 143 l 1
 320 313 l 1
 449 337 l 1
154 157 m 3
 154 125 179.714285714 100 226 100 c 3
 286.930175781 100 320 133.859375 320 197 c 1
 337 145 l 1
 337 52.3671875 278.216216216 -8 187 -8 c 3
 82.0460693359 -8 25 57 25 141 c 3
 25 279.61079491 147.717796122 298.015343987 262 306 c 2
 334 311 l 1
 334 222 l 1
 251.72265625 216.181640625 l 2
 186.675993381 211.581773353 154 197 154 157 c 3
EndSplineSet
EndChar

StartChar: u
Encoding: 117 117 35
Width: 542
VWidth: 0
Flags: HW
LayerCount: 2
Fore
SplineSet
487 503 m 1
 487 0 l 1
 362 0 l 1
 361 143 l 1
 358 143 l 1
 358 503 l 1
 487 503 l 1
375 145 m 1
 375 52.0185546875 318.12086468 -9 214 -9 c 3
 109.736392837 -9 49 60.5910223599 49 166 c 2
 49 503 l 1
 178 503 l 1
 178 205 l 6
 178 147.203618421 205.674418605 109 263 109 c 3
 323.10172526 109 358 146.243164062 358 215 c 1
 375 145 l 1
EndSplineSet
EndChar

StartChar: b
Encoding: 98 98 36
Width: 604
VWidth: 0
Flags: HW
LayerCount: 2
Fore
SplineSet
184 143 m 1
 184 202 l 1
 183 202 l 1
 183 302 l 1
 184 302 l 1
 184 688 l 1
 55 688 l 1
 55 0 l 1
 180 0 l 1
 181 143 l 1
 184 143 l 1
343 515 m 3
 225.592743235 515 152 429.221927267 152 322 c 1
 152 182 l 1
 152 74.7190694363 224.80906693 -12 343 -12 c 3
 493.045898438 -12 582 102.696289062 582 252 c 3
 582 400.30859375 493.045898438 515 343 515 c 3
318 401 m 3
 406.26953125 401 453 334.446289062 453 252 c 3
 453 169.549804688 406.26953125 102 318 102 c 3
 229.73046875 102 183 169.549804688 183 252 c 3
 183 334.446289062 229.73046875 401 318 401 c 3
EndSplineSet
EndChar

StartChar: d
Encoding: 100 100 37
Width: 604
VWidth: 0
Flags: HW
LayerCount: 2
Fore
SplineSet
420 143 m 1
 420 202 l 1
 421 202 l 1
 421 302 l 1
 420 302 l 1
 420 688 l 1
 549 688 l 1
 549 0 l 1
 424 0 l 1
 423 143 l 1
 420 143 l 1
266 515 m 3
 378.352908939 515 452 429.221927267 452 322 c 1
 452 182 l 17
 452 74.7190694363 379.136585244 -12 266 -12 c 3
 110.954101562 -12 22 102.696289062 22 252 c 3
 22 400.30859375 110.954101562 515 266 515 c 3
286 401 m 3
 197.73046875 401 151 334.446289062 151 252 c 3
 151 169.549804688 197.73046875 102 286 102 c 3
 374.26953125 102 421 169.549804688 421 252 c 3
 421 334.446289062 374.26953125 401 286 401 c 3
EndSplineSet
EndChar

StartChar: p
Encoding: 112 112 38
Width: 604
VWidth: 0
Flags: HW
LayerCount: 2
Fore
SplineSet
184 360 m 1
 184 301 l 1
 183 301 l 1
 183 201 l 1
 184 201 l 1
 184 -155 l 1
 55 -155 l 1
 55 503 l 1
 180 503 l 1
 181 360 l 1
 184 360 l 1
343 -12 m 3
 225.647091061 -12 152 73.7780727333 152 181 c 1
 152 321 l 1
 152 428.280930564 224.863414756 515 344 515 c 3
 493.045898438 515 582 400.303710938 582 251 c 3
 582 102.69140625 493.045898438 -12 343 -12 c 3
318 102 m 3
 406.26953125 102 453 168.553710938 453 251 c 3
 453 333.450195312 406.26953125 401 318 401 c 3
 229.73046875 401 183 333.450195312 183 251 c 3
 183 168.553710938 229.73046875 102 318 102 c 3
EndSplineSet
EndChar

StartChar: q
Encoding: 113 113 39
Width: 604
VWidth: 0
Flags: HW
LayerCount: 2
Fore
SplineSet
420 360 m 1
 420 301 l 1
 421 301 l 1
 421 201 l 1
 420 201 l 1
 420 -155 l 1
 549 -155 l 1
 549 503 l 1
 424 503 l 1
 423 360 l 1
 420 360 l 1
261 -12 m 3
 378.352908939 -12 452 73.7780727333 452 181 c 1
 452 322 l 1
 452 428.727936076 379.136585244 515 261 515 c 3
 110.954101562 515 22 400.303710938 22 251 c 3
 22 102.69140625 110.954101562 -12 261 -12 c 3
286 102 m 3
 197.73046875 102 151 168.553710938 151 251 c 3
 151 333.450195312 197.73046875 401 286 401 c 3
 374.26953125 401 421 333.450195312 421 251 c 3
 421 168.553710938 374.26953125 102 286 102 c 3
EndSplineSet
EndChar

StartChar: t
Encoding: 116 116 40
Width: 340
VWidth: 0
Flags: HW
LayerCount: 2
Fore
SplineSet
302 395 m 1
 -5 395 l 1
 -5 415 l 1
 175 612 l 1
 175 503 l 1
 322 503 l 1
 302 395 l 1
71 135 m 2
 71 433 l 1
 175 612 l 1
 200 612 l 1
 200 175 l 2
 200 122 214.857142857 106 263 106 c 3
 276 106 300.692307692 110 312 114 c 1
 312 6 l 1
 298.106588533 -1.2 258.401103565 -6 231 -6 c 3
 125 -6 71 35 71 135 c 2
EndSplineSet
EndChar

StartChar: e
Encoding: 101 101 41
Width: 545
VWidth: 0
Flags: HW
LayerCount: 2
Fore
SplineSet
92 298 m 5
 452 298 l 5
 452 205 l 1
 92 205 l 1
 92 298 l 5
488 28 m 1
 447 2 380 -14 305 -14 c 3
 125 -14 22 91.6029962547 22 252 c 3
 22 397.436090226 116 517 280 517 c 3
 432 517 520 408.444897959 520 273 c 3
 520 249.347826087 519.25 227.666666667 517 205 c 1
 386 205 l 1
 389 226.685714286 391 249.357142857 391 274 c 3
 391 347.439393939 355 405 278 405 c 3
 196 405 151 344.39869281 151 253 c 3
 151 164.577922078 198 100 317 100 c 3
 369 100 435.612716763 116.775052566 488 149 c 1
 488 28 l 1
EndSplineSet
EndChar

StartChar: s
Encoding: 115 115 42
Width: 426
VWidth: 0
Flags: HW
LayerCount: 2
Fore
SplineSet
384 493 m 1
 355 382 l 1
 315 400 277 406 237 406 c 3
 188 406 160 394 160 369 c 3
 160 349.405376548 167.741332308 339.736608135 207.420898438 323.404296875 c 2
 274 296 l 2
 354.88032458 262.709246984 404 227.450980392 404 142 c 3
 404 42 330 -14 202 -14 c 3
 140.212903226 -14 80.4516129032 2 45 24 c 1
 45 143 l 1
 97 112 155 95 210 95 c 3
 258 95 278 109 278 135 c 3
 278 155.180320626 263.225557917 168.209795686 224.310546875 184.375976562 c 2
 153 214 l 2
 94.2379935146 238.411074289 34 269.629139073 34 364 c 3
 34 459 114 518 244 518 c 3
 299 518 354 507 384 493 c 1
EndSplineSet
EndChar

StartChar: c
Encoding: 99 99 43
Width: 474
VWidth: 0
Flags: HWO
LayerCount: 2
Fore
SplineSet
422 383 m 1
 397 389.578947368 364 398 310 398 c 3
 242.828877005 398 151 366.02919708 151 252 c 3
 151 143.887323944 235.637305699 100 316 100 c 3
 361.76 100 416.88 111 446 124 c 1
 446 8 l 1
 421.083969466 -2.47619047619 371.251908397 -14 310 -14 c 3
 181.77385159 -14 22 48.380952381 22 248 c 3
 22 465.100775194 200.962962963 516 324 516 c 3
 383.239669421 516 430.842975207 504.75 452 498 c 1
 422 383 l 1
EndSplineSet
EndChar

StartChar: r
Encoding: 114 114 44
Width: 364
VWidth: 0
Flags: HW
LayerCount: 2
Fore
SplineSet
55 0 m 1
 55 503 l 1
 180 503 l 1
 181 360 l 1
 184 360 l 1
 184 0 l 1
 55 0 l 1
330 368 m 1
 312 376 294 378 282 378 c 3
 221.616161616 378 184 340.756835937 184 272 c 1
 167 339 l 1
 167 442.849406453 221.209150327 511 310 511 c 3
 331.202620968 511 349.342111895 507.468972406 364 501 c 1
 330 368 l 1
EndSplineSet
EndChar

StartChar: v
Encoding: 118 118 45
Width: 501
VWidth: 0
Flags: HW
LayerCount: 2
Fore
SplineSet
335 0 m 1
 214 0 l 5
 355 503 l 5
 486 503 l 1
 335 0 l 1
166 0 m 1
 15 503 l 1
 151 503 l 1
 294 0 l 1
 166 0 l 1
EndSplineSet
EndChar

StartChar: m
Encoding: 109 109 46
Width: 819
VWidth: 0
Flags: HW
LayerCount: 2
Fore
SplineSet
438 321 m 5
 438 435.113591974 499.118817101 510 611 510 c 7
 711.472141654 510 770 443.192618534 770 342 c 6
 770 0 l 1
 641 0 l 1
 641 302 l 6
 641 356.786153372 615.930574264 393 564 393 c 7
 508.959326675 393 477 357.513588959 477 292 c 5
 438 321 l 5
55 0 m 1
 55 503 l 5
 180 503 l 5
 181 360 l 5
 184 360 l 5
 184 0 l 1
 55 0 l 1
167 357 m 5
 167 449.377669694 220.346481979 510 318 510 c 7
 418.472141654 510 477 443.192618534 477 342 c 6
 477 0 l 1
 348 0 l 1
 348 302 l 6
 348 356.786153372 322.930574264 393 271 393 c 7
 215.959326675 393 184 357.513588959 184 292 c 5
 167 357 l 5
EndSplineSet
EndChar

StartChar: f
Encoding: 102 102 47
Width: 340
VWidth: 0
Flags: HW
LayerCount: 2
Fore
SplineSet
17 503 m 1
 337 503 l 5
 317 395 l 5
 -3 395 l 1
 17 503 l 1
71 534 m 2
 71 666.994152047 181.230392157 700 275 700 c 3
 304 700 338.1875 694.545454545 354 688 c 1
 334 581 l 1
 322 584.988338192 293 589 278 589 c 3
 233 589 200 574.942028986 200 525 c 2
 200 0 l 1
 71 0 l 1
 71 534 l 2
EndSplineSet
EndChar

StartChar: g
Encoding: 103 103 48
Width: 604
VWidth: 0
Flags: HW
LayerCount: 2
Fore
SplineSet
420 360 m 1
 420 312 l 1
 421 312 l 1
 421 212 l 1
 420 212 l 1
 420 59 l 2
 420 -26.2711864407 354.79245283 -58 258 -58 c 3
 202.938547486 -58 135 -44.2072368421 82 -13 c 1
 82 -128 l 1
 124.238636364 -153.215652174 202 -165 259 -165 c 3
 456 -165 549 -77 549 67 c 2
 549 503 l 1
 424 503 l 1
 423 360 l 1
 420 360 l 1
261 10 m 3
 378.352908939 10 452 95.7780727333 452 203 c 1
 452 322 l 1
 452 428.727936076 379.136585244 515 261 515 c 3
 110.954101562 515 22 405.082722982 22 262 c 3
 22 119.894427281 110.954101562 10 261 10 c 3
286 124 m 3
 197.73046875 124 151 185.640349727 151 262 c 3
 151 338.403847656 197.73046875 401 286 401 c 3
 374.26953125 401 421 338.403847656 421 262 c 3
 421 185.640349727 374.26953125 124 286 124 c 3
EndSplineSet
EndChar
